<svg width="38" height="38" viewBox="0 0 38 38" fill="none" xmlns="http://www.w3.org/2000/svg">
<circle cx="19" cy="19" r="19" fill="#003E86" fill-opacity="0.8"/>
<g transform="translate(10,10)">
<path d="M9.00528 1.62165C11.4114 1.62165 11.6963 1.63221 12.6426 1.67442C13.522 1.71311 13.9969 1.86086 14.3135 1.98398C14.7321 2.14579 15.0346 2.34278 15.3477 2.65585C15.6643 2.97244 15.8577 3.27145 16.0195 3.69005C16.1427 4.00664 16.2904 4.48505 16.3291 5.36095C16.3713 6.31073 16.3819 6.59566 16.3819 8.99824C16.3819 11.4043 16.3713 11.6893 16.3291 12.6355C16.2904 13.515 16.1427 13.9898 16.0195 14.3064C15.8577 14.725 15.6607 15.0276 15.3477 15.3406C15.0311 15.6572 14.7321 15.8507 14.3135 16.0125C13.9969 16.1356 13.5185 16.2834 12.6426 16.3221C11.6928 16.3643 11.4079 16.3748 9.00528 16.3748C6.59918 16.3748 6.31425 16.3643 5.36799 16.3221C4.48857 16.2834 4.01368 16.1356 3.69709 16.0125C3.27848 15.8507 2.97596 15.6537 2.66289 15.3406C2.3463 15.024 2.15282 14.725 1.99101 14.3064C1.86789 13.9898 1.72015 13.5114 1.68145 12.6355C1.63924 11.6858 1.62869 11.4008 1.62869 8.99824C1.62869 6.59214 1.63924 6.30721 1.68145 5.36095C1.72015 4.48153 1.86789 4.00664 1.99101 3.69005C2.15282 3.27145 2.34981 2.96893 2.66289 2.65585C2.97948 2.33926 3.27848 2.14579 3.69709 1.98398C4.01368 1.86086 4.49209 1.71311 5.36799 1.67442C6.31425 1.63221 6.59918 1.62165 9.00528 1.62165ZM9.00528 0C6.56048 0 6.25445 0.0105531 5.29412 0.0527653C4.33731 0.0949775 3.6795 0.249756 3.10963 0.47137C2.51515 0.703537 2.01212 1.00958 1.51261 1.51261C1.00958 2.01212 0.703537 2.51515 0.47137 3.10612C0.249756 3.6795 0.0949775 4.33379 0.0527653 5.2906C0.0105531 6.25445 0 6.56048 0 9.00528C0 11.4501 0.0105531 11.7561 0.0527653 12.7164C0.0949775 13.6732 0.249756 14.3311 0.47137 14.9009C0.703537 15.4954 1.00958 15.9984 1.51261 16.4979C2.01212 16.9975 2.51515 17.307 3.10612 17.5357C3.6795 17.7573 4.33379 17.9121 5.2906 17.9543C6.25093 17.9965 6.55697 18.007 9.00176 18.007C11.4466 18.007 11.7526 17.9965 12.7129 17.9543C13.6697 17.9121 14.3275 17.7573 14.8974 17.5357C15.4884 17.307 15.9914 16.9975 16.4909 16.4979C16.9904 15.9984 17.3 15.4954 17.5286 14.9044C17.7502 14.3311 17.905 13.6768 17.9472 12.72C17.9894 11.7596 18 11.4536 18 9.00879C18 6.564 17.9894 6.25796 17.9472 5.29764C17.905 4.34082 17.7502 3.68302 17.5286 3.11315C17.307 2.51515 17.001 2.01212 16.4979 1.51261C15.9984 1.01309 15.4954 0.703537 14.9044 0.474888C14.3311 0.253273 13.6768 0.0984952 12.72 0.056283C11.7561 0.0105531 11.4501 0 9.00528 0Z" fill="white"/>
<path d="M9.00527 4.37988C6.45143 4.37988 4.37952 6.4518 4.37952 9.00564C4.37952 11.5595 6.45143 13.6314 9.00527 13.6314C11.5591 13.6314 13.631 11.5595 13.631 9.00564C13.631 6.4518 11.5591 4.37988 9.00527 4.37988ZM9.00527 12.0062C7.34844 12.0062 6.00469 10.6625 6.00469 9.00564C6.00469 7.34881 7.34844 6.00505 9.00527 6.00505C10.6621 6.00505 12.0059 7.34881 12.0059 9.00564C12.0059 10.6625 10.6621 12.0062 9.00527 12.0062Z" fill="white"/>
<path d="M14.8939 4.19712C14.8939 4.79513 14.4085 5.27705 13.814 5.27705C13.216 5.27705 12.7341 4.79161 12.7341 4.19712C12.7341 3.59911 13.2195 3.11719 13.814 3.11719C14.4085 3.11719 14.8939 3.60263 14.8939 4.19712Z" fill="white"/>
</g>
</svg>
