<svg width="239" height="410" viewBox="0 0 239 410" fill="none" xmlns="http://www.w3.org/2000/svg">
<path opacity="0.3" d="M14.8687 361.505C31.3894 365.363 51.765 368.118 75.9954 368.118C128.862 368.118 187.235 358.75 187.235 303.091V288.763C187.235 243.024 146.484 222.634 96.9217 222.634H80.4009C74.894 222.634 68.8364 203.898 68.8364 192.325C68.8364 185.161 73.7926 180.753 79.8502 180.753H89.7627C139.325 180.753 180.627 161.465 180.627 115.726V108.011C180.627 67.2312 155.295 40.7796 83.1544 40.7796C63.8802 40.7796 45.7074 44.086 23.6797 46.8414C18.1728 46.8414 10.4631 28.6559 10.4631 17.0833C10.4631 2.20427 66.6336 0 80.4009 0C171.816 0 231.841 24.2473 231.841 108.011V115.726C231.841 152.648 210.364 188.468 183.931 199.489C214.77 211.613 239 249.086 239 288.763V303.091C239 385.202 158.599 410 83.1544 410C60.0253 410 0 405.591 0 390.712C0 387.406 6.05761 361.505 14.8687 361.505Z" fill="white"/>
</svg>
